<svg width="130" height="21" viewBox="0 0 130 21" fill="none" xmlns="http://www.w3.org/2000/svg">
<g clip-path="url(#clip0_22_127)">
<path d="M11.0751 0.393616H23.2461C23.2387 0.553394 23.1831 0.707275 23.0864 0.835269C22.6744 1.5366 22.3036 2.26655 21.8988 2.96788C21.3261 3.97489 20.7904 5.0003 20.2085 6.00323C19.8397 6.725 19.4236 7.42429 19.0301 8.13379C16.6651 8.13379 14.3001 8.13379 11.9351 8.13379C11.8115 8.13379 11.689 8.13993 11.5654 8.14708C11.4623 8.41698 11.2914 8.65315 11.1533 8.90669C10.9731 9.19703 10.8268 9.5068 10.6486 9.79715C10.4601 10.1877 10.1995 10.5373 10.01 10.9268C9.61857 11.5863 9.2529 12.2559 8.86972 12.9225C8.47007 13.604 8.07934 14.2951 7.69753 14.9958C7.53595 15.2441 7.38709 15.5004 7.25152 15.7636C6.45118 17.1458 5.67658 18.5402 4.87521 19.9214C4.80723 20.0699 4.7177 20.2077 4.60946 20.3304C3.23949 20.3212 1.86953 20.3304 0.499572 20.3304C0.33084 20.3336 0.163109 20.3569 0 20.3999C0 20.0237 0.253391 19.7221 0.424379 19.4062C0.630388 18.9819 0.90541 18.5883 1.11245 18.163C2.75434 15.2473 4.37873 12.3213 6.01547 9.40355C6.38628 8.76969 6.70457 8.12255 7.07744 7.50096C7.54303 6.68309 7.97668 5.84681 8.46183 5.03813C8.61633 4.69974 8.8244 4.38996 8.99436 4.05975C9.59797 2.99344 10.1902 1.921 10.7918 0.854694C10.8632 0.688167 10.9586 0.532844 11.0751 0.393616Z" fill="#BEBEBE"/>
<path d="M25.1785 4.6864C25.9891 3.28067 26.772 1.85961 27.594 0.460022H31.9902C32.0542 0.463237 32.1178 0.473175 32.1797 0.48967C32.0335 0.709474 31.9109 0.942569 31.7821 1.17157C30.7219 3.06019 29.6647 4.94982 28.6106 6.84048C28.1677 7.61031 27.7557 8.39751 27.3066 9.16325L27.2623 9.17859L27.254 9.27469C25.1871 12.9551 23.127 16.6383 21.0738 20.3242C17.038 20.3283 13.002 20.3283 8.96558 20.3242C9.19528 19.8478 9.46721 19.3928 9.72266 18.9297C10.8722 16.8319 12.0516 14.7524 13.1846 12.6546C15.6643 12.6505 18.144 12.6505 20.6236 12.6546C22.1553 10.0067 23.654 7.33836 25.1744 4.6864H25.1785Z" fill="#BEBEBE"/>
<path d="M70.5488 0.405884V20.5665H74.0685V6.38967L80.4888 15.7268L86.8575 6.16782V20.5665H90.4802V0.405884H86.5836L80.5145 9.7123L74.3775 0.405884H70.5488Z" fill="#BEBEBE"/>
<path d="M54.0857 5.60553H56.3858V20.7362H54.0857V5.60553Z" fill="#BEBEBE"/>
<path d="M53.8879 0H56.5836V2.53848H53.8879V0Z" fill="#BEBEBE"/>
<path d="M60.781 1.26978H63.1841V5.60554H67.9223V7.71873H63.1841V16.7072C63.1799 17.0535 63.2609 17.3957 63.42 17.704C63.8268 18.4707 64.9321 19.3806 67.9223 18.3174V20.2762C67.9223 20.2762 65.1927 21.8097 62.7206 20.4132C62.7206 20.4132 61.4927 19.8959 60.9767 18.1497C60.8426 17.682 60.7767 17.1976 60.781 16.7113V7.68499L58.7549 7.71873V5.60554H60.7975L60.781 1.26978Z" fill="#BEBEBE"/>
<path d="M94.1885 0.405884V20.7025H109.467V17.431H97.9142V12.0463H108.094V8.82592H97.8966V3.69784H109.348V0.405884H94.1885Z" fill="#BEBEBE"/>
<path d="M110.901 0.405884H115.253L120.249 7.53163L125.205 0.405884H129.557L122.45 10.3042L130 20.6851H125.416L120.266 13.1034L114.867 20.7025H110.515L117.957 10.3942L110.901 0.405884Z" fill="#BEBEBE"/>
<path d="M47.0464 10.1723C47.0464 10.1723 50.4116 8.91172 50.2056 5.2824C50.2056 5.2824 50.1777 1.79211 46.2183 0.714557C45.5599 0.539481 44.8809 0.452831 44.1994 0.456926H34.7034L34.7291 20.6176H44.9523C44.9523 20.6176 50.9348 20.4898 51.3561 15.1992C51.3561 15.1992 51.7846 11.5013 47.0464 10.1723ZM37.158 2.53842H43.2188C47.9734 2.52206 47.8365 5.84469 47.8365 5.84469C47.9075 9.63554 43.5442 9.55887 43.5442 9.55887H37.158V2.53842ZM44.5743 18.487H37.158V11.4676H44.2488C49.0035 11.4502 48.8665 14.7728 48.8665 14.7728C48.9376 18.5637 44.5743 18.487 44.5743 18.487Z" fill="#BEBEBE"/>
</g>
<defs>
<clipPath id="clip0_22_127">
<rect width="130" height="21" fill="white"/>
</clipPath>
</defs>
</svg>
