<svg width="152" height="31" viewBox="0 0 152 31" fill="none" xmlns="http://www.w3.org/2000/svg">
<g clip-path="url(#clip0_22_123)">
<path d="M9.2972 13.1056L15.2015 7.28139L21.1083 13.1103L24.5419 9.71959L15.2015 0.499939L5.86121 9.71722L9.2972 13.1056Z" fill="#BEBEBE"/>
<path d="M-0.00109863 15.5005L3.43364 12.111L6.86837 15.5005L3.43364 18.89L-0.00109863 15.5005Z" fill="#BEBEBE"/>
<path d="M9.29712 17.8943L15.2015 23.7209L21.1082 17.892L24.5442 21.278L24.5418 21.2803L15.2015 30.5L5.86113 21.2851L5.85632 21.2803L9.29712 17.8943Z" fill="#BEBEBE"/>
<path d="M23.5288 15.5013L26.9635 12.1118L30.3983 15.5013L26.9635 18.8908L23.5288 15.5013Z" fill="#BEBEBE"/>
<path d="M18.6855 15.4987L15.2015 12.0582L12.6251 14.6007L12.3273 14.8921L11.7174 15.494L11.7126 15.4987L11.7174 15.5058L15.2015 18.9416L18.6855 15.5011L18.6879 15.4987H18.6855Z" fill="#BEBEBE"/>
<path d="M35.7574 7.76959H43.2297C45.0834 7.76959 46.4856 8.24349 47.4365 9.19128C47.7947 9.54139 48.0771 9.95967 48.2666 10.4208C48.456 10.8818 48.5486 11.3761 48.5386 11.8735V11.9186C48.545 12.3261 48.4875 12.7321 48.3681 13.1223C48.2617 13.4581 48.1073 13.7773 47.9095 14.07C47.7251 14.3461 47.502 14.595 47.2468 14.8093C46.9974 15.0211 46.7243 15.2039 46.4328 15.3543C47.2735 15.6433 48.0296 16.1315 48.6346 16.776C49.1693 17.3763 49.4366 18.2056 49.4366 19.2639V19.309C49.4518 19.9699 49.306 20.6249 49.0116 21.2188C48.7263 21.766 48.308 22.2349 47.7942 22.5836C47.2133 22.9679 46.5665 23.2449 45.8853 23.4011C45.076 23.5905 44.2463 23.682 43.4146 23.6736H35.7574V7.76959ZM42.4806 14.2004C43.127 14.2312 43.7704 14.0939 44.3462 13.8023C44.5708 13.6729 44.7541 13.4839 44.8755 13.257C44.9969 13.03 45.0514 12.774 45.0329 12.518V12.473C45.0448 12.2371 44.9963 12.0021 44.8918 11.7897C44.7873 11.5772 44.6302 11.3942 44.4351 11.2575C44.0365 10.9779 43.461 10.8381 42.7087 10.8381H39.2126V14.2004H42.4806ZM43.4242 20.6098C44.0683 20.6454 44.7094 20.5 45.2731 20.1904C45.4926 20.0512 45.6704 19.8564 45.7878 19.6264C45.9052 19.3963 45.9579 19.1395 45.9406 18.8825V18.8374C45.9492 18.5932 45.897 18.3505 45.7886 18.1308C45.6802 17.911 45.5189 17.7208 45.3187 17.5769C44.9057 17.2609 44.2382 17.103 43.3162 17.103H39.2126V20.6098H43.4242Z" fill="#BEBEBE"/>
<path d="M53.8883 7.76959H57.4347V23.6783H53.8883V7.76959Z" fill="#BEBEBE"/>
<path d="M62.8013 7.76959H66.0716L73.6303 17.5603V7.76959H77.1311V23.6783H74.1129L66.3069 13.5653V23.6783H62.8013V7.76959Z" fill="#BEBEBE"/>
<path d="M87.8688 7.65582H91.1343L98.0423 23.6783H94.3398L92.8655 20.1098H86.0487L84.5744 23.6783H80.9584L87.8688 7.65582ZM91.6001 17.02L89.4535 11.8593L87.3165 17.02H91.6001Z" fill="#BEBEBE"/>
<path d="M101.877 7.76959H105.147L112.701 17.5603V7.76959H116.202V23.6783H113.184L105.378 13.5653V23.6783H101.877V7.76959Z" fill="#BEBEBE"/>
<path d="M128.966 23.9579C127.836 23.9674 126.715 23.7514 125.672 23.3229C124.69 22.9226 123.798 22.3323 123.051 21.5867C122.303 20.8412 121.714 19.9556 121.319 18.982C120.902 17.9636 120.69 16.8745 120.697 15.7761V15.7311C120.678 13.5659 121.522 11.4802 123.048 9.92345C123.798 9.16303 124.696 8.56016 125.689 8.15108C126.768 7.70979 127.928 7.48971 129.096 7.50421C129.787 7.49912 130.477 7.56023 131.156 7.68666C131.737 7.7951 132.305 7.96265 132.851 8.18662C133.347 8.39245 133.818 8.65149 134.256 8.95907C134.683 9.25906 135.085 9.59351 135.456 9.95899L133.202 12.5275C132.626 12.003 131.979 11.5589 131.281 11.2077C130.595 10.884 129.842 10.7217 129.082 10.7338C128.449 10.7272 127.822 10.8534 127.242 11.1043C126.663 11.3551 126.144 11.7248 125.72 12.1887C125.3 12.6514 124.971 13.1874 124.75 13.7691C124.519 14.3839 124.402 15.035 124.407 15.6908V15.7358C124.404 16.3906 124.521 17.0406 124.75 17.6551C124.968 18.2389 125.294 18.7779 125.71 19.245C126.131 19.7147 126.648 20.0897 127.228 20.3448C127.808 20.5999 128.437 20.7291 129.072 20.7235C129.88 20.7487 130.683 20.577 131.408 20.2236C132.099 19.8522 132.737 19.3934 133.307 18.8588L135.565 21.1098C135.166 21.5366 134.735 21.9327 134.275 22.2945C133.823 22.647 133.333 22.9482 132.813 23.1925C132.259 23.4499 131.675 23.6401 131.074 23.7589C130.38 23.8962 129.674 23.9628 128.966 23.9579Z" fill="#BEBEBE"/>
<path d="M139.75 7.76959H151.882V10.8831H143.238V14.1103H150.85V17.2238H143.25V20.5648H152.003V23.6783H139.757L139.75 7.76959Z" fill="#BEBEBE"/>
</g>
<defs>
<clipPath id="clip0_22_123">
<rect width="152" height="30" fill="white" transform="translate(0 0.5)"/>
</clipPath>
</defs>
</svg>
